<mxfile host="Electron" modified="2023-08-07T14:25:42.223Z" agent="Mozilla/5.0 (Windows NT 10.0; Win64; x64) AppleWebKit/537.36 (KHTML, like Gecko) draw.io/21.6.5 Chrome/114.0.5735.243 Electron/25.3.1 Safari/537.36" etag="vBcPsQuqUdY_7xkRoMZR" version="21.6.5" type="device">
  <diagram id="C5RBs43oDa-KdzZeNtuy" name="Page-1">
    <mxGraphModel dx="592" dy="346" grid="1" gridSize="10" guides="1" tooltips="1" connect="1" arrows="1" fold="1" page="1" pageScale="1" pageWidth="827" pageHeight="1169" math="0" shadow="0">
      <root>
        <mxCell id="WIyWlLk6GJQsqaUBKTNV-0" />
        <mxCell id="WIyWlLk6GJQsqaUBKTNV-1" parent="WIyWlLk6GJQsqaUBKTNV-0" />
        <mxCell id="1PKnD66N_ytpsI6tjwpz-7" style="edgeStyle=orthogonalEdgeStyle;rounded=0;orthogonalLoop=1;jettySize=auto;html=1;exitX=0.5;exitY=1;exitDx=0;exitDy=0;entryX=0.5;entryY=0;entryDx=0;entryDy=0;" parent="WIyWlLk6GJQsqaUBKTNV-1" source="1PKnD66N_ytpsI6tjwpz-0" target="tS8XAzBt40dcEi6n32sI-0" edge="1">
          <mxGeometry relative="1" as="geometry">
            <mxPoint x="480" y="154" as="targetPoint" />
          </mxGeometry>
        </mxCell>
        <mxCell id="1PKnD66N_ytpsI6tjwpz-0" value="INICIO" style="ellipse;whiteSpace=wrap;html=1;" parent="WIyWlLk6GJQsqaUBKTNV-1" vertex="1">
          <mxGeometry x="459" y="110" width="110" height="50" as="geometry" />
        </mxCell>
        <mxCell id="1PKnD66N_ytpsI6tjwpz-1" value="FIN" style="ellipse;whiteSpace=wrap;html=1;" parent="WIyWlLk6GJQsqaUBKTNV-1" vertex="1">
          <mxGeometry x="629" y="290" width="110" height="50" as="geometry" />
        </mxCell>
        <mxCell id="1PKnD66N_ytpsI6tjwpz-8" style="edgeStyle=orthogonalEdgeStyle;rounded=0;orthogonalLoop=1;jettySize=auto;html=1;exitX=0.5;exitY=1;exitDx=0;exitDy=0;entryX=0.5;entryY=0;entryDx=0;entryDy=0;" parent="WIyWlLk6GJQsqaUBKTNV-1" target="1PKnD66N_ytpsI6tjwpz-5" edge="1">
          <mxGeometry relative="1" as="geometry">
            <mxPoint x="514" y="220" as="sourcePoint" />
          </mxGeometry>
        </mxCell>
        <mxCell id="1PKnD66N_ytpsI6tjwpz-13" style="edgeStyle=orthogonalEdgeStyle;rounded=0;orthogonalLoop=1;jettySize=auto;html=1;exitX=1;exitY=0.5;exitDx=0;exitDy=0;entryX=0.5;entryY=0;entryDx=0;entryDy=0;" parent="WIyWlLk6GJQsqaUBKTNV-1" source="1PKnD66N_ytpsI6tjwpz-5" target="1PKnD66N_ytpsI6tjwpz-1" edge="1">
          <mxGeometry relative="1" as="geometry" />
        </mxCell>
        <mxCell id="tS8XAzBt40dcEi6n32sI-5" style="edgeStyle=orthogonalEdgeStyle;rounded=0;orthogonalLoop=1;jettySize=auto;html=1;exitX=0.5;exitY=1;exitDx=0;exitDy=0;entryX=0;entryY=0.5;entryDx=0;entryDy=0;" edge="1" parent="WIyWlLk6GJQsqaUBKTNV-1" source="1PKnD66N_ytpsI6tjwpz-5" target="tS8XAzBt40dcEi6n32sI-0">
          <mxGeometry relative="1" as="geometry">
            <Array as="points">
              <mxPoint x="514" y="320" />
              <mxPoint x="400" y="320" />
              <mxPoint x="400" y="200" />
            </Array>
          </mxGeometry>
        </mxCell>
        <mxCell id="1PKnD66N_ytpsI6tjwpz-5" value="Â¿No me despierto?" style="rhombus;whiteSpace=wrap;html=1;" parent="WIyWlLk6GJQsqaUBKTNV-1" vertex="1">
          <mxGeometry x="434" y="240" width="160" height="50" as="geometry" />
        </mxCell>
        <mxCell id="1PKnD66N_ytpsI6tjwpz-11" value="Verdadero" style="text;html=1;strokeColor=none;fillColor=none;align=center;verticalAlign=middle;whiteSpace=wrap;rounded=0;" parent="WIyWlLk6GJQsqaUBKTNV-1" vertex="1">
          <mxGeometry x="430" y="290" width="60" height="30" as="geometry" />
        </mxCell>
        <mxCell id="1PKnD66N_ytpsI6tjwpz-14" value="Falso" style="text;html=1;strokeColor=none;fillColor=none;align=center;verticalAlign=middle;whiteSpace=wrap;rounded=0;" parent="WIyWlLk6GJQsqaUBKTNV-1" vertex="1">
          <mxGeometry x="569" y="240" width="60" height="30" as="geometry" />
        </mxCell>
        <mxCell id="tS8XAzBt40dcEi6n32sI-0" value="Suena la alarma" style="rounded=0;whiteSpace=wrap;html=1;" vertex="1" parent="WIyWlLk6GJQsqaUBKTNV-1">
          <mxGeometry x="454" y="180" width="120" height="40" as="geometry" />
        </mxCell>
      </root>
    </mxGraphModel>
  </diagram>
</mxfile>
